<?xml version="1.0" encoding="utf-8"?>
<!-- Generator: Adobe Illustrator 15.0.0, SVG Export Plug-In . SVG Version: 6.00 Build 0)  -->
<!DOCTYPE svg PUBLIC "-//W3C//DTD SVG 1.1//EN" "http://www.w3.org/Graphics/SVG/1.1/DTD/svg11.dtd">
<svg version="1.1" id="Layer_1" xmlns="http://www.w3.org/2000/svg" xmlns:xlink="http://www.w3.org/1999/xlink" x="0px" y="0px"
	 width="240px" height="192px" viewBox="0 0 240 192" enable-background="new 0 0 240 192" xml:space="preserve">
<path fill-rule="evenodd" clip-rule="evenodd" stroke="#444" stroke-width="1" transform="scale(1.5)translate(-10,-75)" d="M165.169,148.416c0,0.064,0.032,0.097,0.097,0.097h0.264
	c0.064,0,0.097-0.032,0.097-0.097v-15.84c0-0.064-0.032-0.097-0.097-0.097h-0.264c-0.064,0-0.097,0.032-0.097,0.097V148.416z
	 M151.897,140.472h-4.465c-0.175,0-0.287-0.112-0.287-0.287v-7.008c0-0.176,0.111-0.288,0.287-0.288h4.465
	c2.53,0,4.271,1.113,4.271,3.792C156.169,139.358,154.428,140.472,151.897,140.472z M156.817,148.513
	c0.005,0,0.01,0.007,0.015,0.005c0.001-0.01-0.014-0.021-0.024-0.039l-3.729-7.68l0.184-0.035c2.179-0.422,3.363-1.863,3.363-4.083
	c0-2.907-1.979-4.201-4.728-4.201h-5.112c-0.064,0-0.097,0.032-0.097,0.097v15.84c0,0.064,0.032,0.097,0.097,0.097h0.264
	c0.064,0,0.097-0.032,0.097-0.097v-7.248c0-0.176,0.111-0.287,0.287-0.287h4.465c0.21,0,0.422,0,0.632-0.023l0.102-0.012
	l3.622,7.538c0.039,0.092,0.057,0.129,0.156,0.129H156.817z M132.744,148.753c3.646,0,5.185-2.187,5.185-5.688v-10.488
	c0-0.064-0.032-0.097-0.097-0.097h-0.264c-0.064,0-0.097,0.032-0.097,0.097v10.512c0,3.185-1.387,5.256-4.728,5.256
	c-3.328,0-4.728-2.082-4.728-5.256v-10.512c0-0.064-0.032-0.097-0.097-0.097h-0.264c-0.064,0-0.097,0.032-0.097,0.097v10.488
	C127.56,146.591,129.076,148.753,132.744,148.753z M113.976,148.753c2.893,0,5.424-1.266,5.424-4.44
	c0-2.724-2.006-3.707-4.459-4.034l-0.72-0.096c-2.277-0.303-4.396-1.105-4.396-3.719c0-2.535,1.894-3.815,4.296-3.815
	c1.473,0,2.797,0.425,4.057,1.172c0.062,0.037,0.104,0.045,0.149-0.013l0.169-0.217c0.035-0.044,0.042-0.092-0.017-0.128
	c-1.201-0.819-2.871-1.223-4.311-1.223c-2.721,0-4.8,1.423-4.8,4.296c0,2.683,2.083,3.69,4.483,4.01l0.72,0.096
	c2.323,0.31,4.373,1.109,4.373,3.742c0,2.769-2.311,3.96-4.823,3.96c-1.704,0-3.523-0.635-4.865-1.687
	c-0.056-0.044-0.088-0.057-0.14,0.007l-0.197,0.222c-0.041,0.04-0.012,0.098,0.018,0.127
	C110.193,148.096,112.331,148.753,113.976,148.753z M97.199,148.513c0.064,0,0.096-0.032,0.096-0.097v-15.239
	c0-0.176,0.112-0.288,0.288-0.288h4.873c0.064,0,0.096-0.032,0.096-0.097v-0.216c0-0.064-0.032-0.097-0.096-0.097H91.679
	c-0.064,0-0.096,0.032-0.096,0.097v0.216c0,0.064,0.032,0.097,0.096,0.097h4.872c0.175,0,0.288,0.112,0.288,0.288v15.239
	c0,0.064,0.032,0.097,0.096,0.097H97.199z M79.558,148.753c3.646,0,5.184-2.187,5.184-5.688v-10.488
	c0-0.064-0.032-0.097-0.096-0.097h-0.264c-0.064,0-0.096,0.032-0.096,0.097v10.512c0,3.185-1.386,5.256-4.728,5.256
	c-3.328,0-4.728-2.082-4.728-5.256v-10.512c0-0.064-0.032-0.097-0.096-0.097H74.47c-0.064,0-0.096,0.032-0.096,0.097v10.488
	C74.374,146.591,75.89,148.753,79.558,148.753z"/>
<path fill-rule="evenodd" clip-rule="evenodd" stroke="#444" stroke-width="1" transform="translate(-80,15)" d="M89.398,76.444v26.566l-1.473-2.418c-3.585-5.886-5.458-12.609-5.458-19.5
	c0-5.354,1.131-10.641,3.348-15.516l0.212-0.466h11.179C93.507,66.506,89.398,70.513,89.398,76.444 M100.815,48.798v15.053v0.947
	H86.158l0.613-1.165c2.997-5.689,7.426-10.535,12.817-14.039L100.815,48.798z M100.815,66.704v-1.592h-1.589H98.27
	c-2.572,0.549-8.633,4.406-8.558,11.333v26.818l0.157,0.211c2.67,3.586,5.968,6.685,9.718,9.12l1.228,0.796V69.251V66.704z
	 M114.482,65.112h-0.175h-0.725h-8.7c3.701,1.395,7.809,5.401,7.809,11.333v2.753v0.45l0,18.534c0,0.087-0.07,0.156-0.157,0.156
	c-0.086,0-0.157-0.069-0.157-0.156V79.647v-0.45v-2.753c0.075-6.926-5.985-10.784-8.558-11.333h-0.956h-0.832h-0.175h-0.729v1.589
	v2.55v44.293l0.403,0.229c5.642,3.192,11.986,4.852,18.468,4.852c9.478,0,18.526-3.542,25.482-9.98l1.488-1.377h-39.414
	c-0.085,0-0.157-0.072-0.157-0.157s0.071-0.157,0.157-0.157h28.129V94.596c0-0.085,0.071-0.157,0.156-0.157S136,94.511,136,94.596
	v12.357h11.199l0.235-0.252c4.221-4.521,7.275-10.02,8.853-16.002l0.264-0.997h-37.942c-0.085,0-0.157-0.072-0.157-0.157
	c0-0.084,0.072-0.157,0.157-0.157h38.004l0.131-0.633c0.356-1.725,0.595-3.475,0.708-5.233l0.054-0.846h-38.897
	c-0.085,0-0.157-0.072-0.157-0.157c0-0.085,0.072-0.157,0.157-0.157h17.078V70.006c0-0.084,0.071-0.157,0.156-0.157
	S136,69.921,136,70.006v12.357h21.516l0.01-0.785c0.002-0.162,0.006-0.324,0.006-0.485c0-5.354-1.131-10.641-3.348-15.516
	l-0.212-0.466h-38.589H114.482z M114.308,64.798h0.175h0.9h38.459l-0.613-1.165c-6.503-12.347-19.27-20.073-33.229-20.073
	c-6.481,0-12.826,1.661-18.468,4.853l-0.403,0.228v15.209v0.947h0.729h0.175h11.55H114.308z M101.306,48.179l-0.157,0.09
	c-0.241,0.139-0.479,0.281-0.717,0.424c-11.355,6.874-18.278,19.123-18.278,32.4c0,7.937,2.46,15.616,7.095,22.062l0.111,0.155
	c0.102,0.142,0.204,0.281,0.308,0.42l0.003,0.005c0.179,0.238,0.36,0.476,0.542,0.708l0.014,0.017
	c0.191,0.242,0.384,0.482,0.579,0.719l0.307,0.362c2.653,3.131,5.809,5.824,9.319,7.95l0.196,0.119
	c0.546,0.33,1.104,0.64,1.667,0.938c5.461,2.895,11.525,4.39,17.705,4.39c20.275,0,37.008-16.003,37.812-36.287l0.007-0.078
	l0.005-0.026c0.002-0.009,0.003-0.019,0.001-0.051l-0.004-0.078l0.001-0.028c0.018-0.433,0.024-0.865,0.024-1.297
	c0-20.902-16.944-37.846-37.846-37.846c-6.18,0-12.243,1.494-17.704,4.391l-0.407,0.216
	C101.693,47.96,101.499,48.068,101.306,48.179z"/>
</svg>
